{"title":"The.Pyramid.2014.WEB-DL.XviD.MP3-RARBG","uid":11785226,"size":1064961986,"categoryP":"video","categoryS":"hd___movies","magnet":"?xt=urn:btih:c2ede4094e5cc428465fd1a4e692398c84c5feaf&amp;dn=The.Pyramid.2014.WEB-DL.XviD.MP3-RARBG&amp;tr=udp%3A%2F%2Ftracker.openbittorrent.com%3A80&amp;tr=udp%3A%2F%2Fopen.demonii.com%3A1337&amp;tr=udp%3A%2F%2Ftracker.coppersurfer.tk%3A6969&amp;tr=udp%3A%2F%2Fexodus.desync.com%3A6969","seeders":8,"leechers":1,"uploader":"vickey1992","files":5,"time":1427732131,"description":"Info:\n\n[mediainfo]\n\nFormat : AVI\nFormat/Info : Audio Video Interleave\nFile size : 1 014 MiB\nDuration : 1h 29mn\nOverall bit rate : 1 588 Kbps\nMovie name : RARBG.COM - The.Pyramid.2014.WEB-DL.XviD.MP3-RARBG\nWriting library : VirtualDub build 35491/release\nComment : RARBG.COM - The.Pyramid.2014.WEB-DL.XviD.MP3-RARBG\n\nVideo\nID : 0\nFormat : MPEG-4 Visual\nFormat profile : Simple@L5\nFormat settings, BVOP : No\nFormat settings, QPel : No\nFormat settings, GMC : No warppoints\nFormat settings, Matrix : Default (H.263)\nCodec ID : XVID\nCodec ID/Hint : XviD\nDuration : 1h 29mn\nBit rate : 1 384 Kbps\nWidth : 720 pixels\nHeight : 304 pixels\nDisplay aspect ratio : 2.35:1\nFrame rate : 23.976 fps\nColor space : YUV\nChroma subsampling : 4:2:0\nBit depth : 8 bits\nScan type : Progressive\nCompression mode : Lossy\nBits/(Pixel*Frame) : 0.264\nStream size : 884 MiB (87%)\nWriting library : Lavc56.20.100\n\nAudio\nID : 1\nFormat : MPEG Audio\nFormat version : Version 1\nFormat profile : Layer 3\nMode : Joint stereo\nMode extension : MS Stereo\nCodec ID : 55\nCodec ID/Hint : MP3\nDuration : 1h 28mn\nBit rate mode : Constant\nBit rate : 192 Kbps\nChannel(s) : 2 channels\nSampling rate : 48.0 KHz\nCompression mode : Lossy\nStream size : 122 MiB (12%)\nAlignment : Aligned on interleaves\nInterleave, duration : 24 ms (0.58 video frame)\nInterleave, preload duration : 504 ms\nWriting library : LAME3.99.5\n\n\n\n[/mediainfo]\n\nNotes:\nGreetz to all! :)","torrent":{"xt":"urn:btih:c2ede4094e5cc428465fd1a4e692398c84c5feaf","amp;dn":"The.Pyramid.2014.WEB-DL.XviD.MP3-RARBG","amp;tr":["udp%3A%2F%2Ftracker.openbittorrent.com%3A80","udp%3A%2F%2Fopen.demonii.com%3A1337","udp%3A%2F%2Ftracker.coppersurfer.tk%3A6969","udp%3A%2F%2Fexodus.desync.com%3A6969"],"infoHash":"c2ede4094e5cc428465fd1a4e692398c84c5feaf","infoHashBuffer":{"type":"Buffer","data":[194,237,228,9,78,92,196,40,70,95,209,164,230,146,57,140,132,197,254,175]},"announce":[],"urlList":[]}}